<svg width="100" height="100" viewBox="0 0 100 100" fill="none" xmlns="http://www.w3.org/2000/svg">
<path d="M0 0H50C77.6142 0 100 22.3858 100 50C100 77.6142 77.6142 100 50 100H0V0Z" fill="#8E98A4"/>
<path d="M45.9889 75.3333C44.9408 75.3333 44.0472 74.9602 43.3083 74.2139C42.5695 73.4676 42.2 72.5704 42.2 71.5222C42.2 70.474 42.5732 69.5805 43.3194 68.8416C44.0657 68.1027 44.9629 67.7333 46.0111 67.7333C47.0593 67.7333 47.9528 68.1064 48.6917 68.8527C49.4306 69.599 49.8 70.4962 49.8 71.5444C49.8 72.5925 49.4269 73.4861 48.6806 74.225C47.9343 74.9638 47.0371 75.3333 45.9889 75.3333ZM45.9889 53.8C44.9408 53.8 44.0472 53.4268 43.3083 52.6805C42.5695 51.9343 42.2 51.037 42.2 49.9889C42.2 48.9407 42.5732 48.0472 43.3194 47.3083C44.0657 46.5694 44.9629 46.2 46.0111 46.2C47.0593 46.2 47.9528 46.5731 48.6917 47.3194C49.4306 48.0657 49.8 48.9629 49.8 50.011C49.8 51.0592 49.4269 51.9527 48.6806 52.6916C47.9343 53.4305 47.0371 53.8 45.9889 53.8ZM45.9889 32.2666C44.9408 32.2666 44.0472 31.8935 43.3083 31.1472C42.5695 30.4009 42.2 29.5037 42.2 28.4555C42.2 27.4074 42.5732 26.5138 43.3194 25.775C44.0657 25.0361 44.9629 24.6666 46.0111 24.6666C47.0593 24.6666 47.9528 25.0398 48.6917 25.786C49.4306 26.5323 49.8 27.4295 49.8 28.4777C49.8 29.5259 49.4269 30.4194 48.6806 31.1583C47.9343 31.8972 47.0371 32.2666 45.9889 32.2666Z" fill="#DEE1EE"/>
</svg>
